HIERARCHY
ROOT Hips
{
	OFFSET -8.665500 -1.496397 44.816700
	CHANNELS 6 Xposition Yposition Zposition Zrotation Xrotation Yrotation
	JOINT Chest
	{
		OFFSET -0.698600 0.806100 5.350899
		CHANNELS 6 Xposition Yposition Zposition Zrotation Xrotation Yrotation
		JOINT Chest2
		{
			OFFSET 0.000000 0.000000 4.409100
			CHANNELS 6 Xposition Yposition Zposition Zrotation Xrotation Yrotation
			JOINT Neck
			{
				OFFSET 0.000000 0.000001 10.248299
				CHANNELS 6 Xposition Yposition Zposition Zrotation Xrotation Yrotation
				JOINT Head
				{
					OFFSET 0.000000 0.000000 2.173897
					CHANNELS 6 Xposition Yposition Zposition Zrotation Xrotation Yrotation
					End Site
					{
						OFFSET 0.000000 0.000001 9.966400
					}
				}
			}
			JOINT LeftCollar
			{
				OFFSET 2.100600 -0.520900 6.016098
				CHANNELS 6 Xposition Yposition Zposition Zrotation Xrotation Yrotation
				JOINT LeftShoulder
				{
					OFFSET 5.536700 0.000000 0.000000
					CHANNELS 6 Xposition Yposition Zposition Zrotation Xrotation Yrotation
					JOINT LeftElbow
					{
						OFFSET 0.000000 -0.000001 -12.362099
						CHANNELS 6 Xposition Yposition Zposition Zrotation Xrotation Yrotation
						JOINT LeftWrist
						{
							OFFSET 0.000000 -0.000001 -10.273201
							CHANNELS 6 Xposition Yposition Zposition Zrotation Xrotation Yrotation
							End Site
							{
								OFFSET 0.000000 -0.000000 -2.173901
							}
						}
					}
				}
			}
			JOINT RightCollar
			{
				OFFSET -2.899500 -1.655900 6.981701
				CHANNELS 6 Xposition Yposition Zposition Zrotation Xrotation Yrotation
				JOINT RightShoulder
				{
					OFFSET -4.387501 0.000000 0.000000
					CHANNELS 6 Xposition Yposition Zposition Zrotation Xrotation Yrotation
					JOINT RightElbow
					{
						OFFSET 0.000000 -0.000001 -10.858101
						CHANNELS 6 Xposition Yposition Zposition Zrotation Xrotation Yrotation
						JOINT RightWrist
						{
							OFFSET 0.000000 -0.000001 -12.079601
							CHANNELS 6 Xposition Yposition Zposition Zrotation Xrotation Yrotation
							End Site
							{
								OFFSET 0.000000 0.000000 -2.173901
							}
						}
					}
				}
			}
		}
	}
	JOINT LeftHip
	{
		OFFSET 2.190800 0.073900 -2.522499
		CHANNELS 6 Xposition Yposition Zposition Zrotation Xrotation Yrotation
		JOINT LeftKnee
		{
			OFFSET 0.000000 -0.000002 -20.305000
			CHANNELS 6 Xposition Yposition Zposition Zrotation Xrotation Yrotation
			JOINT LeftAnkle
			{
				OFFSET 0.000000 -0.000001 -16.771700
				CHANNELS 6 Xposition Yposition Zposition Zrotation Xrotation Yrotation
				End Site
				{
					OFFSET 0.000000 -8.738000 0.000001
				}
			}
		}
	}
	JOINT RightHip
	{
		OFFSET -2.029500 0.054300 -2.705200
		CHANNELS 6 Xposition Yposition Zposition Zrotation Xrotation Yrotation
		JOINT RightKnee
		{
			OFFSET 0.000000 -0.000002 -20.030399
			CHANNELS 6 Xposition Yposition Zposition Zrotation Xrotation Yrotation
			JOINT RightAnkle
			{
				OFFSET 0.000000 -0.000001 -17.032700
				CHANNELS 6 Xposition Yposition Zposition Zrotation Xrotation Yrotation
				End Site
				{
					OFFSET 0.000000 -8.823600 0.000001
				}
			}
		}
	}
}
MOTION
Frames: 5
Frame Time: 0.041667
9.641706 3.441607 35.912495 2167.101435 27.706416 5.080734 -0.698599 0.806098 5.350905 -0.959923 35.032600 -4.184512 0.000002 -0.000006 4.409099 -16.240761 -4.688750 -2.151965 0.000001 0.000004 10.248302 1.099023 21.404022 -26.828215 -0.000002 -0.000006 2.173895 1.108150 -1.395818 4.997050 2.100596 -0.520902 6.016100 -25.001031 23.405224 -17.001466 5.536695 0.000001 0.000003 320.672764 412.035806 -416.882099 0.000001 0.000001 -12.362089 -2137.662555 2.419276 -3.691523 -0.000005 -0.000002 -10.273197 2388.596711 170.848535 -162.287330 -2.899501 -1.655898 6.981704 -22.310062 -11.053415 -2.619622 -4.387504 -0.000001 0.000002 -1069.375070 -394.723654 107.559285 -0.000003 0.000000 -10.858109 164.702321 181.675546 182.631677 -0.000002 0.000001 -12.079601 -141.714636 -177.952902 185.380432 2.190800 0.073899 -2.522499 -819.919240 -150.931512 -106.558785 -0.000004 -0.000007 -20.305012 -852.014190 14.207961 92.405301 0.000001 0.000003 -16.771704 1865.595684 -7.628860 44.404644 -2.029498 0.054296 -2.705196 -454.933902 -50.577216 -100.496330 -0.000003 0.000001 -20.030397 129.003190 60.361756 -71.565534 0.000001 -0.000001 -17.032698 355.275514 21.472969 -2.001674
10.056405 2.933109 36.159298 2170.471724 27.216379 4.286523 -0.698596 0.806103 5.350903 -3.675545 34.946755 -3.816080 0.000001 -0.000001 4.409103 -13.976476 -4.720004 -1.900116 -0.000001 0.000003 10.248301 -0.196777 22.748761 -25.275095 0.000002 -0.000008 2.173896 1.428540 -2.555284 5.530597 2.100603 -0.520897 6.016098 -24.725510 22.803869 -17.875957 5.536697 -0.000001 -0.000002 320.839530 413.066810 -415.254246 0.000001 0.000001 -12.362094 -2136.589395 1.976447 -2.661739 -0.000004 0.000003 -10.273196 2386.396625 170.272286 -161.513374 -2.899498 -1.655898 6.981697 -22.574235 -10.971912 -3.274192 -4.387502 -0.000001 -0.000003 -1070.074372 -395.069179 107.755373 0.000001 -0.000000 -10.858103 166.497185 180.821786 183.297060 0.000005 0.000000 -12.079604 -145.490474 -178.361757 185.931013 2.190801 0.073894 -2.522496 -822.955068 -151.439118 -110.416169 -0.000009 -0.000008 -20.305010 -849.929015 13.814464 91.375500 0.000000 0.000005 -16.771702 1864.158175 -8.016164 44.220994 -2.029497 0.054295 -2.705195 -453.659143 -51.127063 -98.801623 -0.000001 0.000001 -20.030396 110.117266 65.113081 -55.861641 -0.000000 -0.000002 -17.032698 363.122827 23.386119 -1.173856
10.541701 2.401007 36.410599 2173.834581 26.680934 3.439795 -0.698601 0.806102 5.350901 -6.501332 34.816380 -3.515345 -0.000000 -0.000003 4.409099 -11.762174 -4.701175 -1.754338 -0.000000 -0.000004 10.248298 -1.173800 23.898391 -23.503644 -0.000001 -0.000003 2.173890 1.692661 -3.965522 6.415291 2.100601 -0.520904 6.016103 -24.289768 21.402512 -18.725163 5.536700 -0.000006 -0.000000 320.728171 414.045740 -413.406161 0.000004 0.000000 -12.362093 -2135.818513 1.622595 -1.765157 0.000001 -0.000001 -10.273198 2383.804432 170.101094 -161.011874 -2.899502 -1.655903 6.981700 -22.750511 -11.247949 -3.352117 -4.387497 -0.000004 -0.000003 -1070.872903 -395.585569 107.263121 0.000000 -0.000003 -10.858104 168.629434 179.930119 183.875673 0.000007 -0.000001 -12.079610 -149.070286 -178.886274 186.472388 2.190799 0.073898 -2.522501 -826.236946 -152.062714 -114.276435 -0.000004 -0.000007 -20.305008 -847.792204 13.517055 90.214744 0.000000 0.000004 -16.771704 1862.885465 -8.224406 44.361201 -2.029500 0.054299 -2.705198 -452.288461 -51.678960 -96.518414 -0.000004 0.000002 -20.030399 88.640815 66.326444 -38.264383 0.000000 -0.000001 -17.032700 371.271598 26.274317 -2.590119
11.101605 1.843807 36.660599 2176.327764 25.749969 3.018348 -0.698600 0.806103 5.350902 -8.610218 34.970623 -3.344049 0.000000 0.000003 4.409101 -9.696254 -4.090205 -1.560107 -0.000004 -0.000000 10.248301 -2.322630 24.545822 -21.224104 -0.000000 -0.000005 2.173886 1.950253 -5.517900 7.570573 2.100599 -0.520901 6.016100 -21.862843 20.643767 -21.924014 5.536697 -0.000005 0.000002 318.727772 413.249749 -410.931283 0.000001 0.000001 -12.362088 -2134.974848 1.353752 -1.111945 0.000000 0.000000 -10.273205 2382.163656 169.958275 -160.296043 -2.899502 -1.655901 6.981697 -22.108928 -12.055689 -0.829305 -4.387505 -0.000007 0.000002 -1074.283954 -396.993735 103.331692 -0.000000 -0.000001 -10.858113 171.248347 179.240119 184.199397 0.000001 -0.000001 -12.079609 -152.486541 -179.676035 187.359916 2.190798 0.073895 -2.522506 -829.097921 -152.797370 -118.464509 -0.000007 -0.000009 -20.305012 -845.475076 13.758034 89.123997 0.000001 0.000003 -16.771706 1861.610788 -7.667722 43.052591 -2.029500 0.054300 -2.705199 -449.663701 -52.001649 -93.284135 0.000002 0.000005 -20.030399 71.880194 64.830851 -25.558303 -0.000001 -0.000001 -17.032703 378.122059 30.095429 -1.495599
11.730702 1.277707 36.912895 2178.871873 24.925855 2.421824 -0.698601 0.806099 5.350900 -10.961431 34.904070 -3.022789 0.000001 -0.000005 4.409098 -7.321561 -4.058160 -1.365363 -0.000000 -0.000006 10.248301 -3.775265 25.664362 -18.691373 0.000001 -0.000002 2.173899 2.590262 -6.861581 8.715422 2.100597 -0.520903 6.016098 -20.326773 19.851226 -23.676444 5.536693 -0.000009 0.000003 317.452139 413.588172 -409.135599 -0.000002 0.000000 -12.362094 -2134.204184 1.160680 -0.648978 -0.000001 -0.000003 -10.273203 2380.618831 169.929765 -159.579392 -2.899502 -1.655902 6.981699 -22.581611 -13.504010 -0.365059 -4.387501 0.000002 -0.000001 -1075.803316 -395.458609 101.399178 -0.000011 0.000000 -10.858102 172.426609 178.559832 184.545195 0.000001 -0.000001 -12.079606 -156.080327 -180.428463 188.129173 2.190799 0.073899 -2.522497 -831.966328 -153.692070 -122.327554 -0.000005 -0.000011 -20.305006 -842.979051 15.897366 88.046835 0.000003 0.000004 -16.771704 1858.282027 -6.242416 41.901343 -2.029499 0.054292 -2.705198 -447.077791 -52.400938 -89.795896 0.000001 0.000001 -20.030399 59.929514 62.472660 -17.794130 -0.000001 0.000001 -17.032698 384.656119 33.929176 -2.500567
